/* XPM */
static char *sound[] = {
"11 10 2 1",
"M c #ffffff",
". c None",
"...........",
".......MMM.",
"...M..M...M",
"..MM......M",
".MMM.....M.",
"MMMMM...M..",
".MMM....M..",
"..MM....M..",
"...M.......",
"........M..",
};
