/* XPM */
static char *volume[] = {
"10 12 2 1",
"M c #ffffff",
". c None",
"....M.....",
".....M....",
"..M...M...",
"...M..M...",
"....M..M..",
".M..M..M..",
"....M..M..",
"...M..M...",
"..M...M...",
".....M....",
"....M.....",
"..........",
};
