/* XPM */
static char *open[] = {
"10 8 2 1",
"l c #ffffff",
". c None",
"lllllllll.",
"l.......l.",
"l.......l.",
"l.......l.",
".lllllll..",
"l.......l.",
"lllllllll.",
"..........",
};
