/* XPM */
static char *sound[] = {
"10 12 2 1",
"M c #ffffff",
". c None",
"......MMM.",
"....MMMMM.",
"..MMMMM.M.",
"..MMM...M.",
"..M.....M.",
"..M.....M.",
"..M.....M.",
"..M.....M.",
"..M...MMM.",
"..M...MMM.",
"MMM.......",
"MMM.......",
};

